<?xml version="1.0" encoding="UTF-8"?>
<svg xmlns="http://www.w3.org/2000/svg" width="1200" height="720" viewBox="0 0 1200 720">
  <defs>
    <linearGradient id="bg" x1="0" y1="0" x2="1" y2="1">
      <stop offset="0%" stop-color="#0b3d2e"/>
      <stop offset="55%" stop-color="#145c45"/>
      <stop offset="100%" stop-color="#1a7a58"/>
    </linearGradient>
    <linearGradient id="card" x1="0" y1="0" x2="0" y2="1">
      <stop offset="0%" stop-color="#ffffff"/>
      <stop offset="100%" stop-color="#f3f7f5"/>
    </linearGradient>
  </defs>
  <rect width="1200" height="720" fill="url(#bg)"/>
  <circle cx="1040" cy="120" r="180" fill="#ffffff" opacity="0.06"/>
  <circle cx="160" cy="620" r="220" fill="#ffffff" opacity="0.05"/>
  <rect x="70" y="70" width="1060" height="580" rx="28" fill="url(#card)" opacity="0.96"/>
  <text x="120" y="160" fill="#0b3d2e" font-family="Arial,sans-serif" font-size="42" font-weight="700">SPOORTAL</text>
  <text x="120" y="205" fill="#4b6358" font-family="Arial,sans-serif" font-size="22">Gestionale sportivo - Affiliazioni - Tessere - Eventi</text>
  <rect x="120" y="250" width="280" height="150" rx="16" fill="#e7f6ef"/>
  <rect x="430" y="250" width="280" height="150" rx="16" fill="#e7f6ef"/>
  <rect x="740" y="250" width="280" height="150" rx="16" fill="#e7f6ef"/>
  <rect x="145" y="285" width="120" height="14" rx="7" fill="#1a7a58" opacity="0.85"/>
  <rect x="145" y="315" width="200" height="10" rx="5" fill="#9fbfb0"/>
  <rect x="145" y="340" width="160" height="10" rx="5" fill="#c5d9ce"/>
  <rect x="455" y="285" width="120" height="14" rx="7" fill="#1a7a58" opacity="0.85"/>
  <rect x="455" y="315" width="200" height="10" rx="5" fill="#9fbfb0"/>
  <rect x="455" y="340" width="160" height="10" rx="5" fill="#c5d9ce"/>
  <rect x="765" y="285" width="120" height="14" rx="7" fill="#1a7a58" opacity="0.85"/>
  <rect x="765" y="315" width="200" height="10" rx="5" fill="#9fbfb0"/>
  <rect x="765" y="340" width="160" height="10" rx="5" fill="#c5d9ce"/>
  <rect x="120" y="440" width="900" height="140" rx="18" fill="#0b3d2e"/>
  <rect x="150" y="480" width="220" height="16" rx="8" fill="#7dcca8"/>
  <rect x="150" y="520" width="520" height="12" rx="6" fill="#3f6f5c"/>
  <circle cx="980" cy="510" r="36" fill="#1a7a58"/>
  <path d="M968 510 l8 8 16-18" fill="none" stroke="#fff" stroke-width="5" stroke-linecap="round" stroke-linejoin="round"/>
</svg>
